g ad29_wall06
v -0.02712642 0.01 0.001522455
v 0.02712641 0.01 0.001522455
v 0.02712642 -0.01 0.001522455
v -0.02712642 -0.01 0.001522455
v -0.02712642 -0.01 0.001522455
v 0.02712642 -0.01 0.001522455
v 0.02712642 -0.01 -0.001522455
v -0.02712642 -0.01 -0.001522455
vt 0.6899414 0.8369141
vt 0.6899414 0.007637024
vt 0.3840332 0.007637024
vt 0.3840332 0.8369141
vt 0.3840332 0.8369141
vt 0.3840332 0.007637024
vt 0.3374023 0.007637024
vt 0.3374023 0.8369141
vn 0 0 1
vn 0 0 1
vn 0 0 1
vn 0 0 1
vn 0 -1 0
vn 0 -1 0
vn 0 -1 0
vn 0 -1 0
g ad29_wall06_0
f 3/3/3 2/2/2 1/1/1
f 4/4/4 3/3/3 1/1/1
f 7/7/7 6/6/6 5/5/5
f 8/8/8 7/7/7 5/5/5
